<svg width="69" height="52" viewBox="0 0 69 52" fill="none" xmlns="http://www.w3.org/2000/svg">
<path fill-rule="evenodd" clip-rule="evenodd" d="M15.7999 3.51068C15.6864 3.54971 15.4122 3.64428 14.6714 4.49661C13.4092 5.94912 12.0949 8.50709 11.8853 11.2762C11.8401 11.8737 11.702 11.8918 11.9199 12.397C11.1495 13.3505 11.1 13.307 10.3654 14.288C10.1514 14.5736 9.42662 15.6762 9.0735 16.2395C8.71057 16.8187 7.36809 19.4106 7.03648 20.2711C5.84091 23.3733 5.45123 24.1891 4.64912 28.4623C4.54479 29.018 4.16135 31.7755 4.37893 34.1125C4.56051 36.0632 4.84798 37.1632 5.43462 38.6668C6.87697 42.1334 8.68638 43.8181 10.4413 45.0049C11.6232 45.8041 13.9954 46.7081 15.9133 46.8038C16.357 46.8259 19.3024 47.1262 22.4801 45.5128C24.8023 44.3338 26.9632 42.555 29.9773 39.3447C33.9348 35.1296 38.6837 28.3172 43.3742 24.2961C46.4599 21.6508 50.3242 19.2846 55.601 19.6747C59.1976 19.9406 61.6393 21.5742 61.9206 21.748C62.1169 21.8692 63.9566 23.1962 64.907 24.3002C64.9354 24.3332 66.4047 25.8513 67.4296 28.3461C67.7013 29.0069 67.9087 29.7861 67.9427 29.9137C67.9701 30.0167 67.9814 30.1245 68.0193 30.2243C68.0366 30.2699 68.106 30.4297 68.1096 30.4598C68.1185 30.5342 68.1624 30.69 68.3675 30.7964C68.4175 33.1716 69.1628 36.5035 66.6889 41.683C65.7942 43.5558 64.084 45.6939 62.5758 46.9299C62.4293 47.0498 56.954 52.3368 48.2316 50.8009C45.1176 50.2526 42.3633 48.6413 41.1256 47.7324C40.4932 47.2682 38.9029 46.2501 36.0042 43.0784C35.4918 42.5177 35.5203 42.4336 35.6818 42.2426C36.1497 41.6889 36.1695 41.7095 37.0712 40.6412C38.3111 39.172 38.4063 38.9202 38.5704 39.061C38.6022 39.0884 39.9276 40.7414 40.3671 41.0594C40.7813 41.3592 40.8391 41.7211 40.9313 41.8379C40.9805 41.9002 41.2364 42.1448 41.2636 42.1707C41.3416 42.2455 41.3395 42.2447 41.7097 42.6133C43.2068 44.104 45.5082 45.6552 47.2267 46.3443C54.0615 49.0848 59.8759 45.293 62.3457 41.6234C65.9333 36.2929 64.2632 30.8234 62.7218 28.471C60.727 25.4265 57.8849 24.4417 57.2702 24.3997L57.157 24.4755C56.3307 23.8871 53.1184 23.4663 50.1556 24.8438C47.1788 26.2278 44.2932 28.5496 38.2949 36.0949C33.7646 41.7938 30.4451 45.8512 25.8184 48.7253C25.4567 48.95 24.1098 49.6038 23.9594 49.6768C23.9335 49.6894 21.7174 50.6875 19.7 50.9218C16.6107 51.2804 10.4183 51.4899 4.89869 45.6343C3.54395 44.197 2.4244 42.1805 2.24527 41.8577C-3.85855 30.8623 4.27182 15.501 5.60404 12.97C6.76272 10.7688 8.87008 7.29995 10.6673 5.28141C11.5534 4.28627 12.1587 3.52132 13.9013 2.06393C14.5828 1.49401 15.6873 0.697573 17.3599 0.063902C17.8529 -0.122929 17.8568 0.11025 17.9538 0.628386C17.9991 0.870434 18.555 4.27696 18.7292 5.1753C18.8223 5.65651 18.816 6.04514 18.9112 6.09758C19.1416 6.22443 18.9262 5.91109 19.754 4.20511C21.2368 1.14907 23.4226 0.342649 23.6144 0.363827C24.3421 0.444214 24.0712 6.06299 24.1979 6.39053C24.3013 6.65819 24.8486 6.58312 26.383 7.31027C28.9905 8.5459 29.8216 10.9667 29.9893 11.139C30.1701 11.3247 35.6985 12.1316 36.1971 12.2044C38.2081 12.4979 38.6179 13.5673 37.9946 16.0475C36.594 21.6213 31.8233 22.7303 29.8408 23.0915C28.5579 23.3252 25.7047 23.3658 23.7943 23.07C23.2725 22.7753 23.5356 22.5857 22.9191 21.9399C21.3276 20.2731 19.9174 20.0804 19.9165 20.0241C22.6352 20.5981 29.3762 22.1115 33.2672 19.3225C34.2627 18.6089 34.7998 17.6729 34.897 17.5036C35.2829 16.8312 35.232 16.7715 35.1885 16.7206C35.0914 16.6068 33.4936 16.1111 33.1368 14.4825C33.0856 14.2491 33.1737 14.0489 32.7405 13.9818C32.2699 13.909 28.5565 13.3139 28.4159 13.2401C28.1096 13.0792 28.0975 12.2856 27.2333 10.9827C26.6166 10.0531 25.6919 9.5417 25.5316 9.45299C23.9355 8.57018 21.2735 8.021 18.6011 8.65733C17.5858 8.89904 17.2078 9.12734 17.1237 8.8456C17.1214 8.83784 16.4316 5.49818 16.3185 4.85408C16.2984 4.74032 16.2765 4.62689 16.2556 4.51335C16.0986 3.65548 16.1493 3.18436 15.7999 3.51068Z" fill="#16426B"/>
<path fill-rule="evenodd" clip-rule="evenodd" d="M20.2749 20.0965C20.2759 20.1529 21.3276 20.2732 22.9191 21.94C23.5356 22.5858 23.8026 23.0921 23.8222 23.125C23.8743 23.2119 25.6047 25.9315 23.4713 29.669C22.8261 30.7993 21.2398 32.6776 18.8264 33.9202C15.981 35.3854 14.2945 35.6613 11.9105 36.0479C10.6838 36.2468 9.94929 36.1177 9.90538 36.3389C9.88866 36.423 10.1651 37.7817 11.2674 39.3071C13.453 42.332 17.2918 43.6402 21.7306 40.8008C22.0244 40.6129 23.361 39.8415 25.5121 37.7877C28.5903 34.8487 32.8778 28.9354 35.9177 25.6246C41.8958 19.1138 46.6767 16.4801 53.0345 16.4942C54.294 16.497 57.7018 16.7997 60.5989 18.5105C60.8657 18.6681 65.4883 21.0357 67.4949 26.8109C68.244 28.9673 68.3456 30.4708 68.3675 30.7964C68.1624 30.6901 68.1185 30.5343 68.1096 30.4599C68.105 30.4211 68.0366 30.27 68.0193 30.2244C67.9814 30.1246 67.9702 30.0167 67.9427 29.9137C67.9087 29.7862 67.7013 29.007 67.4297 28.3461C66.4047 25.8514 64.9354 24.3333 64.907 24.3003C63.9566 23.1963 62.1169 21.8693 61.9206 21.7481C61.6393 21.5743 59.1977 19.9406 55.601 19.6747C50.3243 19.2847 46.4599 21.6508 43.3742 24.2962C38.6837 28.3173 33.9348 35.1297 29.9773 39.3447C26.9632 42.5551 24.8023 44.3338 22.4801 45.5129C19.3024 47.1263 16.357 46.8259 15.9133 46.8039C13.9954 46.7082 11.6232 45.8042 10.4413 45.005C8.68639 43.8181 6.87698 42.1334 5.43462 38.6668C5.44811 38.6353 5.3537 38.2324 5.34144 38.1776C5.31569 38.0626 5.22541 37.6036 5.20991 37.5579C5.17324 37.4496 5.14047 37.2298 5.12419 37.1075C5.11829 37.0628 5.10904 37.0654 5.00905 36.5559C4.88432 35.92 4.86548 35.8189 4.83951 35.6771C4.57646 34.2428 4.0373 27.9933 8.97832 23.1141C11.5778 20.5471 15.1344 19.3998 18.5891 19.8355C19.9322 20.0049 19.9281 20.0259 20.2749 20.0965ZM16.1376 30.5674C16.2577 30.4965 16.2569 30.4968 16.2674 30.4908C19.202 28.8207 20.0335 26.7485 19.2687 25.2443C18.774 24.2714 16.7409 23.4022 14.0367 24.9404C10.4825 26.9621 9.48092 32.0101 9.64009 32.473C9.67877 32.5856 9.72714 32.7114 11.1304 32.3712C12.6153 32.0112 14.3643 31.6267 16.1376 30.5674ZM56.7232 24.2588L57.2515 24.3234C58.1093 24.5431 60.7271 25.4266 62.7218 28.4711C64.2632 30.8235 65.9334 36.293 62.3457 41.6235C59.8759 45.293 54.0616 49.0849 47.2268 46.3444C45.5082 45.6553 43.2068 44.1041 41.7097 42.6133C41.3395 42.2448 41.3416 42.2455 41.2636 42.1708C41.2364 42.1449 40.9805 41.9003 40.9313 41.838C40.8391 41.7212 40.835 41.7292 40.8287 41.7183C40.8122 41.69 40.416 41.1641 40.4166 41.1026C41.0338 41.4961 44.6973 44.5537 49.1329 44.8791C50.8888 45.008 53.0568 44.5362 54.3897 43.9142C54.7584 43.7421 56.7958 42.9297 58.6335 41.0177C59.8735 39.7277 63.027 35.7293 61.4994 30.1288C61.4097 29.7999 60.9085 27.9626 59.4895 26.3661C58.6636 25.4371 57.747 25.0123 56.7232 24.2588ZM51.373 41.2296C51.1734 41.3597 49.7793 42.2695 48.3904 41.1657C47.5843 40.525 47.2611 39.332 46.3531 38.8745C45.1587 38.2729 43.7091 38.236 43.3774 36.4406C43.258 35.7942 43.486 33.7916 46.0171 33.3738C47.1435 33.1879 47.1564 33.2551 48.2499 32.9262C48.3726 32.8893 50.6328 31.8892 52.0711 33.5285C53.1216 34.7256 52.498 35.815 52.5668 37.8898C52.6208 39.5161 52.5282 40.3118 51.373 41.2296ZM15.7999 3.51074C15.9565 4.24786 15.6314 4.30696 15.5928 5.51277C15.4897 8.73202 16.2825 9.31568 15.7914 9.59299C15.1836 9.93627 15.175 9.91132 14.5715 10.267C13.405 10.9549 12.2487 12.1276 11.9199 12.3971C11.702 11.8918 11.8401 11.8738 11.8853 11.2762C12.0949 8.50715 13.4092 5.94919 14.6714 4.49668C15.4122 3.64435 15.6864 3.54977 15.7999 3.51074ZM53.4156 32.6718C53.414 32.6365 53.1568 31.6068 54.4986 30.3656C55.3645 29.5646 56.3797 29.4656 56.8289 29.5459C58.3454 29.8177 58.1955 31.5818 57.3593 32.5476C56.2247 33.8582 55.1511 33.872 54.9293 33.8749C53.5356 33.8927 53.4328 32.75 53.4156 32.6718ZM56.2735 34.8197C56.4296 34.8017 57.6748 34.6592 58.1689 35.333C59.2115 36.7549 57.1497 38.5709 55.5965 38.624C53.687 38.6891 53.2194 36.9335 54.5899 35.6657C55.3964 34.9195 56.2568 34.8239 56.2735 34.8197ZM51.8202 26.9416C51.9033 26.914 52.46 26.7293 52.9145 26.9324C54.6357 27.7016 53.6082 31.0142 51.8083 31.4575C49.584 32.0055 49.4002 28.0687 51.8202 26.9416ZM48.8875 30.3427C48.8198 30.5454 48.7155 31.1558 47.9207 31.8078C46.5886 32.9004 44.8894 31.4692 45.9398 29.2581C46.438 28.209 47.211 27.9882 47.3602 27.9456C48.1933 27.7077 49.3663 28.3679 48.8875 30.3427Z" fill="#EE9019"/>
</svg>
